<svg xmlns="http://www.w3.org/2000/svg" version="1.1" xmlns:xlink="http://www.w3.org/1999/xlink" xmlns:svgjs="http://svgjs.dev/svgjs" width="128" height="128" viewBox="0 0 128 128"><g transform="matrix(0.8046875,0,0,0.8046875,12.333870967741937,35.38920315274901)"><svg viewBox="0 0 155 87" data-background-color="#ffffff" preserveAspectRatio="xMidYMid meet" height="71" width="128" xmlns="http://www.w3.org/2000/svg" xmlns:xlink="http://www.w3.org/1999/xlink"><g id="tight-bounds" transform="matrix(1,0,0,1,0.25,0.0675965665235907)"><svg viewBox="0 0 154.50000000000003 86.86480686695282" height="86.86480686695282" width="154.50000000000003"><g><svg viewBox="0 0 154.50000000000003 86.86480686695282" height="86.86480686695282" width="154.50000000000003"><g><svg viewBox="0 0 154.50000000000003 86.86480686695282" height="86.86480686695282" width="154.50000000000003"><g id="textblocktransform"><svg viewBox="0 0 154.50000000000003 86.86480686695282" height="86.86480686695282" width="154.50000000000003" id="textblock"><g><svg viewBox="0 0 154.50000000000003 86.86480686695282" height="86.86480686695282" width="154.50000000000003"><g transform="matrix(1,0,0,1,0,0)"><svg width="154.50000000000003" viewBox="3 -38.4 69.9 39.3" height="86.86480686695282" data-palette-color="#31302e"><path d="M36.3-37.5L36.3 0 25 0 15.85-13.3Q15.6-13.65 15.45-14.35 15.3-15.05 15.25-16.2L15.25-16.2 15-16.2 15 0 3 0 3-37.5 14.3-37.5 23.45-24.2Q23.7-23.85 23.85-23.15 24-22.45 24.05-21.3L24.05-21.3 24.3-21.3 24.3-37.5 36.3-37.5ZM61.5-11.05L61.5-11.05 61.5-12.65 58.45-12.65 58.45-21.85 72.9-21.85 72.9-1.8Q65.8 0.9 58.15 0.9L58.15 0.9Q52.9 0.9 49.47-0.35 46.05-1.6 44.05-4.08 42.05-6.55 41.27-10.23 40.5-13.9 40.5-18.8L40.5-18.8Q40.5-24 41.45-27.73 42.4-31.45 44.6-33.83 46.8-36.2 50.45-37.3 54.1-38.4 59.5-38.4L59.5-38.4Q60.7-38.4 62.32-38.27 63.95-38.15 65.6-37.93 67.25-37.7 68.72-37.43 70.2-37.15 71.1-36.85L71.1-36.85 69.3-27.65Q66.85-28.05 64.65-28.28 62.45-28.5 60.55-28.5L60.55-28.5Q56.6-28.5 55-27.9L55-27.9Q53.4-27.3 53.4-25.5L53.4-25.5 53.4-8.5 57.35-8.5Q59.55-8.5 60.52-8.97 61.5-9.45 61.5-11.05Z" opacity="1" transform="matrix(1,0,0,1,0,0)" fill="#31302e" class="wordmark-text-0" data-fill-palette-color="primary" id="text-0"></path></svg></g></svg></g></svg></g></svg></g></svg></g><defs></defs></svg><rect width="154.50000000000003" height="86.86480686695282" fill="none" stroke="none" visibility="hidden"></rect></g></svg></g></svg>