<svg xmlns="http://www.w3.org/2000/svg" version="1.1" xmlns:xlink="http://www.w3.org/1999/xlink" xmlns:svgjs="http://svgjs.dev/svgjs" width="2000" height="737" viewBox="0 0 2000 737"><g transform="matrix(1,0,0,1,-1.2121212121212466,-1.9934572830073876)"><svg viewBox="0 0 396 146" data-background-color="#000000" preserveAspectRatio="xMidYMid meet" height="737" width="2000" xmlns="http://www.w3.org/2000/svg" xmlns:xlink="http://www.w3.org/1999/xlink"><g id="tight-bounds" transform="matrix(1,0,0,1,0.2400000000000091,0.3949046992117786)"><svg viewBox="0 0 395.52 145.21019060157644" height="145.21019060157644" width="395.52"><g><svg viewBox="0 0 594.6856848988637 218.33136542322265" height="145.21019060157644" width="395.52"><g transform="matrix(1,0,0,1,199.16568489886362,17.315581146966792)"><svg viewBox="0 0 395.52000000000004 183.70020312928906" height="183.70020312928906" width="395.52000000000004"><g id="textblocktransform"><svg viewBox="0 0 395.52000000000004 183.70020312928906" height="183.70020312928906" width="395.52000000000004" id="textblock"><g><svg viewBox="0 0 395.52000000000004 183.70020312928906" height="183.70020312928906" width="395.52000000000004"><g transform="matrix(1,0,0,1,0,0)"><svg width="395.52000000000004" viewBox="1.1999999999999946 -38.39999999999999 182.15 81.6" height="183.70020312928906" data-palette-color="url(#72852d88-6f13-4550-8fca-c571e1aa3310)"><svg></svg><svg></svg><g class="wordmark-text-0" data-fill-palette-color="primary" id="text-0"></g></svg></g></svg></g></svg></g></svg></g><g><svg viewBox="0 0 179.01992461812796 218.33136542322265" height="218.33136542322265" width="179.01992461812796"><g><svg xmlns="http://www.w3.org/2000/svg" xmlns:xlink="http://www.w3.org/1999/xlink" version="1.1" x="0" y="0" viewBox="33.66375667942837 19.096 132.67224332057165 161.80607884698676" enable-background="new 0 0 200 200" xml:space="preserve" height="218.33136542322265" width="179.01992461812796" class="icon-icon-0" data-fill-palette-color="accent" id="icon-0"></svg></g></svg></g></svg></g><defs></defs><mask id="31f952a9-ae41-499e-a262-04e261946c47"><g id="SvgjsG1010"><svg viewBox="0 0 395.52 145.21019060157644" height="145.21019060157644" width="395.52"><g><svg viewBox="0 0 594.6856848988637 218.33136542322265" height="145.21019060157644" width="395.52"><g transform="matrix(1,0,0,1,199.16568489886362,17.315581146966792)"><svg viewBox="0 0 395.52000000000004 183.70020312928906" height="183.70020312928906" width="395.52000000000004"><g id="SvgjsG1009"><svg viewBox="0 0 395.52000000000004 183.70020312928906" height="183.70020312928906" width="395.52000000000004" id="SvgjsSvg1008"><g><svg viewBox="0 0 395.52000000000004 183.70020312928906" height="183.70020312928906" width="395.52000000000004"><g transform="matrix(1,0,0,1,0,0)"><svg width="395.52000000000004" viewBox="1.1999999999999946 -38.39999999999999 182.15 81.6" height="183.70020312928906" data-palette-color="url(#72852d88-6f13-4550-8fca-c571e1aa3310)"><svg></svg><svg></svg><g class="wordmark-text-0" data-fill-palette-color="primary" id="SvgjsG1007"><path d="M36.3-37.5v37.5h-11.3l-9.15-13.3c-0.167-0.233-0.3-0.583-0.4-1.05-0.1-0.467-0.167-1.083-0.2-1.85v0h-0.25v16.2h-12v-37.5h11.3l9.15 13.3c0.167 0.233 0.3 0.583 0.4 1.05 0.1 0.467 0.167 1.083 0.2 1.85v0h0.25v-16.2zM40.5-18.7v0c0-3.433 0.293-6.393 0.88-8.88 0.58-2.48 1.563-4.52 2.95-6.12 1.38-1.6 3.203-2.783 5.47-3.55 2.267-0.767 5.067-1.15 8.4-1.15v0c3.367 0 6.177 0.383 8.43 1.15 2.247 0.767 4.063 1.95 5.45 3.55 1.38 1.6 2.363 3.64 2.95 6.12 0.58 2.487 0.87 5.447 0.87 8.88v0c0 3.267-0.267 6.123-0.8 8.57-0.533 2.453-1.473 4.497-2.82 6.13-1.353 1.633-3.17 2.857-5.45 3.67-2.287 0.82-5.163 1.23-8.63 1.23v0c-3.467 0-6.34-0.41-8.62-1.23-2.287-0.813-4.103-2.037-5.45-3.67-1.353-1.633-2.297-3.677-2.83-6.13-0.533-2.447-0.8-5.303-0.8-8.57zM53.4-24.95v0 15.6h5c1.667 0 2.86-0.193 3.58-0.58 0.713-0.38 1.07-1.253 1.07-2.62v0-15.6h-5.05c-1.6 0-2.767 0.19-3.5 0.57-0.733 0.387-1.1 1.263-1.1 2.63zM106.8-27.9v-9.6h-29.4v9.6h8.7v27.9h12v-27.9zM134.1-14.15v-8.7h-12v-5.05h12.9l1.5-9.6h-26.4v37.5h26.7v-9.6h-14.7v-4.55z" fill="white" fill-rule="nonzero" stroke="none" stroke-width="1" stroke-linecap="butt" stroke-linejoin="miter" stroke-miterlimit="10" stroke-dasharray="" stroke-dashoffset="0" font-family="none" font-weight="none" font-size="none" text-anchor="none" style="mix-blend-mode: normal" opacity="1"></path><path transform="translate(0,42.3)" d="M22.2-11.05v0-1.6h-3.05v-9.2h14.45v20.05c-4.733 1.8-9.65 2.7-14.75 2.7v0c-3.5 0-6.39-0.417-8.67-1.25-2.287-0.833-4.097-2.077-5.43-3.73-1.333-1.647-2.257-3.697-2.77-6.15-0.52-2.447-0.78-5.303-0.78-8.57v0c0-3.467 0.317-6.443 0.95-8.93 0.633-2.48 1.683-4.513 3.15-6.1 1.467-1.58 3.417-2.737 5.85-3.47 2.433-0.733 5.45-1.1 9.05-1.1v0c0.8 0 1.743 0.043 2.83 0.13 1.08 0.08 2.17 0.193 3.27 0.34 1.1 0.153 2.143 0.32 3.13 0.5 0.98 0.187 1.77 0.38 2.37 0.58v0l-1.8 9.2c-1.633-0.267-3.183-0.477-4.65-0.63-1.467-0.147-2.833-0.22-4.1-0.22v0c-2.633 0-4.483 0.2-5.55 0.6v0c-1.067 0.4-1.6 1.2-1.6 2.4v0 17h3.95c1.467 0 2.527-0.157 3.18-0.47 0.647-0.32 0.97-1.013 0.97-2.08zM38.1-16.45v-21.05h12v28.15h4.25c1.533 0 2.577-0.2 3.13-0.6 0.547-0.4 0.82-1.267 0.82-2.6v0-24.95h12v21.05c0 3.2-0.207 5.9-0.62 8.1-0.42 2.2-1.22 3.99-2.4 5.37-1.187 1.387-2.83 2.38-4.93 2.98-2.1 0.6-4.817 0.9-8.15 0.9v0c-3.333 0-6.05-0.3-8.15-0.9-2.1-0.6-3.74-1.583-4.92-2.95-1.187-1.367-1.987-3.16-2.4-5.38-0.42-2.213-0.63-4.92-0.63-8.12zM84.35 0l1.35-5.95h9.9l1.4 5.95h12.65l-9.7-37.5h-18.55l-9.7 37.5zM90.35-26h0.65l2.4 10.5h-5.5zM138.15-12.5v0l6.5 12.5h-13.2l-4.9-11.15h-2.6v11.15h-12v-37.5h18.9c8.6 0 12.9 4.383 12.9 13.15v0c0 6-1.867 9.95-5.6 11.85zM126.7-27.9v0h-2.75v7.5h2.75c1.467 0 2.527-0.15 3.18-0.45 0.647-0.3 0.97-0.983 0.97-2.05v0-2.5c0-1.067-0.323-1.75-0.97-2.05-0.653-0.3-1.713-0.45-3.18-0.45zM165.65 0v0h-16.8v-37.5h16.8c3.367 0 6.183 0.34 8.45 1.02 2.267 0.687 4.083 1.78 5.45 3.28 1.367 1.5 2.343 3.433 2.93 5.8 0.58 2.367 0.87 5.233 0.87 8.6v0c0 3.367-0.29 6.24-0.87 8.62-0.587 2.387-1.563 4.33-2.93 5.83-1.367 1.5-3.183 2.6-5.45 3.3-2.267 0.7-5.083 1.05-8.45 1.05zM165.85-27.9v0h-5v18.3h5c1.667 0 2.86-0.193 3.58-0.58 0.713-0.38 1.07-1.253 1.07-2.62v0-11.9c0-1.367-0.357-2.243-1.07-2.63-0.72-0.38-1.913-0.57-3.58-0.57z" fill="white" fill-rule="nonzero" stroke="none" stroke-width="1" stroke-linecap="butt" stroke-linejoin="miter" stroke-miterlimit="10" stroke-dasharray="" stroke-dashoffset="0" font-family="none" font-weight="none" font-size="none" text-anchor="none" style="mix-blend-mode: normal" opacity="1"></path></g></svg></g></svg></g></svg></g></svg></g><g><svg viewBox="0 0 179.01992461812796 218.33136542322265" height="218.33136542322265" width="179.01992461812796"><g><svg xmlns="http://www.w3.org/2000/svg" xmlns:xlink="http://www.w3.org/1999/xlink" version="1.1" x="0" y="0" viewBox="33.66375667942837 19.096 132.67224332057165 161.80607884698676" enable-background="new 0 0 200 200" xml:space="preserve" height="218.33136542322265" width="179.01992461812796" class="icon-icon-0" data-fill-palette-color="accent" id="SvgjsSvg1006"><g fill="black"><path fill="black" d="M94.599 172.819H94.59L56.059 172.902H56.025C52.267 172.902 48.733 171.442 46.069 168.788A14.03 14.03 0 0 1 41.913 158.81L41.663 41.435A14.03 14.03 0 0 1 45.779 31.442 14.03 14.03 0 0 1 55.752 27.285L94.289 27.204A4 4 0 0 0 94.281 19.204H94.273L55.737 19.285A21.97 21.97 0 0 0 40.111 25.797 21.98 21.98 0 0 0 33.664 41.452L33.914 158.828A22 22 0 0 0 40.424 174.456 21.96 21.96 0 0 0 56.025 180.902H56.079L94.609 180.819A4 4 0 0 0 94.599 172.819"></path><path fill="black" d="M166.005 127.065C166.033 126.998 166.062 126.931 166.087 126.863 166.149 126.693 166.197 126.52 166.236 126.344 166.246 126.297 166.261 126.253 166.269 126.206 166.31 125.983 166.33 125.759 166.331 125.531 166.332 125.515 166.336 125.5 166.336 125.483L166.155 41.173C166.128 28.99 156.204 19.096 144.022 19.096H143.977L109.14 19.173A4 4 0 0 0 109.149 27.173H109.158L143.994 27.096H144.023C151.799 27.096 158.137 33.413 158.155 41.19L158.328 121.5 132.473 121.554A21.97 21.97 0 0 0 116.843 128.067 21.98 21.98 0 0 0 110.4 143.724L110.469 176.785C110.469 176.809 110.474 176.833 110.475 176.857 110.476 176.927 110.486 176.996 110.491 177.065 110.504 177.231 110.523 177.395 110.555 177.556A4.3 4.3 0 0 0 110.765 178.256C110.792 178.325 110.816 178.395 110.847 178.462 110.944 178.67 111.056 178.869 111.187 179.057 111.217 179.101 111.255 179.142 111.289 179.185 111.405 179.337 111.53 179.482 111.667 179.617 111.694 179.643 111.713 179.675 111.74 179.7 111.769 179.727 111.802 179.745 111.833 179.771 111.96 179.882 112.095 179.985 112.236 180.081 112.293 180.12 112.347 180.162 112.406 180.198 112.596 180.312 112.796 180.416 113.007 180.499L113.012 180.5C113.241 180.59 113.475 180.656 113.712 180.702L113.733 180.708A4 4 0 0 0 115.274 180.694C115.319 180.684 115.361 180.664 115.406 180.653 115.625 180.6 115.842 180.541 116.05 180.451 116.078 180.439 116.104 180.419 116.132 180.406 116.35 180.306 116.564 180.194 116.764 180.053 116.99 179.895 117.202 179.712 117.395 179.505L165.262 128.221C165.421 128.051 165.557 127.867 165.682 127.676 165.719 127.618 165.75 127.56 165.785 127.5 165.866 127.36 165.94 127.215 166.005 127.065"></path><path fill="black" d="M131.981 50.3H131.972L67.885 50.434A4 4 0 0 0 67.893 58.434H67.901L131.99 58.3A4 4 0 0 0 135.981 54.292 4 4 0 0 0 131.981 50.3"></path><path fill="black" d="M132.025 73.115H132.016L67.935 73.251A4 4 0 0 0 67.943 81.251H67.951L132.033 81.115A4 4 0 0 0 132.025 73.115"></path><path fill="black" d="M132.066 95.935L67.985 96.069A4 4 0 0 0 67.993 104.069H68.001L132.083 103.935A4 4 0 0 0 132.074 95.935z"></path></g></svg></g></svg></g></svg></g><defs><mask></mask></defs></svg><rect width="395.52" height="145.21019060157644" fill="black" stroke="none" visibility="hidden"></rect></g></mask><linearGradient x1="0" x2="1" y1="0.5" y2="0.5" id="72852d88-6f13-4550-8fca-c571e1aa3310"><stop stop-color="#ffa62e" offset="0"></stop><stop stop-color="#f71b3d" offset="1"></stop></linearGradient><rect width="395.52" height="145.21019060157644" fill="url(#72852d88-6f13-4550-8fca-c571e1aa3310)" mask="url(#31f952a9-ae41-499e-a262-04e261946c47)" data-fill-palette-color="primary"></rect><mask id="5fb5ca9a-5f50-4589-b0df-2162edc68f73"><g id="SvgjsG1031"><svg viewBox="0 0 395.52 145.21019060157644" height="145.21019060157644" width="395.52"><g><svg viewBox="0 0 594.6856848988637 218.33136542322265" height="145.21019060157644" width="395.52"><g transform="matrix(1,0,0,1,199.16568489886362,17.315581146966792)"><svg viewBox="0 0 395.52000000000004 183.70020312928906" height="183.70020312928906" width="395.52000000000004"><g id="SvgjsG1030"><svg viewBox="0 0 395.52000000000004 183.70020312928906" height="183.70020312928906" width="395.52000000000004" id="SvgjsSvg1029"><g><svg viewBox="0 0 395.52000000000004 183.70020312928906" height="183.70020312928906" width="395.52000000000004"><g transform="matrix(1,0,0,1,0,0)"><svg width="395.52000000000004" viewBox="1.1999999999999946 -38.39999999999999 182.15 81.6" height="183.70020312928906" data-palette-color="url(#72852d88-6f13-4550-8fca-c571e1aa3310)"><svg></svg><svg></svg><g class="wordmark-text-0" data-fill-palette-color="primary" id="SvgjsG1028"></g></svg></g></svg></g></svg></g></svg></g><g><svg viewBox="0 0 179.01992461812796 218.33136542322265" height="218.33136542322265" width="179.01992461812796"><g><svg xmlns="http://www.w3.org/2000/svg" xmlns:xlink="http://www.w3.org/1999/xlink" version="1.1" x="0" y="0" viewBox="33.66375667942837 19.096 132.67224332057165 161.80607884698676" enable-background="new 0 0 200 200" xml:space="preserve" height="218.33136542322265" width="179.01992461812796" class="icon-icon-0" data-fill-palette-color="accent" id="SvgjsSvg1027"><g fill="white"><path fill="white" d="M94.599 172.819H94.59L56.059 172.902H56.025C52.267 172.902 48.733 171.442 46.069 168.788A14.03 14.03 0 0 1 41.913 158.81L41.663 41.435A14.03 14.03 0 0 1 45.779 31.442 14.03 14.03 0 0 1 55.752 27.285L94.289 27.204A4 4 0 0 0 94.281 19.204H94.273L55.737 19.285A21.97 21.97 0 0 0 40.111 25.797 21.98 21.98 0 0 0 33.664 41.452L33.914 158.828A22 22 0 0 0 40.424 174.456 21.96 21.96 0 0 0 56.025 180.902H56.079L94.609 180.819A4 4 0 0 0 94.599 172.819"></path><path fill="white" d="M166.005 127.065C166.033 126.998 166.062 126.931 166.087 126.863 166.149 126.693 166.197 126.52 166.236 126.344 166.246 126.297 166.261 126.253 166.269 126.206 166.31 125.983 166.33 125.759 166.331 125.531 166.332 125.515 166.336 125.5 166.336 125.483L166.155 41.173C166.128 28.99 156.204 19.096 144.022 19.096H143.977L109.14 19.173A4 4 0 0 0 109.149 27.173H109.158L143.994 27.096H144.023C151.799 27.096 158.137 33.413 158.155 41.19L158.328 121.5 132.473 121.554A21.97 21.97 0 0 0 116.843 128.067 21.98 21.98 0 0 0 110.4 143.724L110.469 176.785C110.469 176.809 110.474 176.833 110.475 176.857 110.476 176.927 110.486 176.996 110.491 177.065 110.504 177.231 110.523 177.395 110.555 177.556A4.3 4.3 0 0 0 110.765 178.256C110.792 178.325 110.816 178.395 110.847 178.462 110.944 178.67 111.056 178.869 111.187 179.057 111.217 179.101 111.255 179.142 111.289 179.185 111.405 179.337 111.53 179.482 111.667 179.617 111.694 179.643 111.713 179.675 111.74 179.7 111.769 179.727 111.802 179.745 111.833 179.771 111.96 179.882 112.095 179.985 112.236 180.081 112.293 180.12 112.347 180.162 112.406 180.198 112.596 180.312 112.796 180.416 113.007 180.499L113.012 180.5C113.241 180.59 113.475 180.656 113.712 180.702L113.733 180.708A4 4 0 0 0 115.274 180.694C115.319 180.684 115.361 180.664 115.406 180.653 115.625 180.6 115.842 180.541 116.05 180.451 116.078 180.439 116.104 180.419 116.132 180.406 116.35 180.306 116.564 180.194 116.764 180.053 116.99 179.895 117.202 179.712 117.395 179.505L165.262 128.221C165.421 128.051 165.557 127.867 165.682 127.676 165.719 127.618 165.75 127.56 165.785 127.5 165.866 127.36 165.94 127.215 166.005 127.065"></path><path fill="white" d="M131.981 50.3H131.972L67.885 50.434A4 4 0 0 0 67.893 58.434H67.901L131.99 58.3A4 4 0 0 0 135.981 54.292 4 4 0 0 0 131.981 50.3"></path><path fill="white" d="M132.025 73.115H132.016L67.935 73.251A4 4 0 0 0 67.943 81.251H67.951L132.033 81.115A4 4 0 0 0 132.025 73.115"></path><path fill="white" d="M132.066 95.935L67.985 96.069A4 4 0 0 0 67.993 104.069H68.001L132.083 103.935A4 4 0 0 0 132.074 95.935z"></path></g></svg></g></svg></g></svg></g><defs><mask></mask></defs><mask><g id="SvgjsG1026"><svg viewBox="0 0 395.52 145.21019060157644" height="145.21019060157644" width="395.52"><g><svg viewBox="0 0 594.6856848988637 218.33136542322265" height="145.21019060157644" width="395.52"><g transform="matrix(1,0,0,1,199.16568489886362,17.315581146966792)"><svg viewBox="0 0 395.52000000000004 183.70020312928906" height="183.70020312928906" width="395.52000000000004"><g id="SvgjsG1025"><svg viewBox="0 0 395.52000000000004 183.70020312928906" height="183.70020312928906" width="395.52000000000004" id="SvgjsSvg1024"><g><svg viewBox="0 0 395.52000000000004 183.70020312928906" height="183.70020312928906" width="395.52000000000004"><g transform="matrix(1,0,0,1,0,0)"><svg width="395.52000000000004" viewBox="1.1999999999999946 -38.39999999999999 182.15 81.6" height="183.70020312928906" data-palette-color="url(#72852d88-6f13-4550-8fca-c571e1aa3310)"><svg></svg><svg></svg><g class="wordmark-text-0" data-fill-palette-color="primary" id="SvgjsG1023"><path d="M36.3-37.5v37.5h-11.3l-9.15-13.3c-0.167-0.233-0.3-0.583-0.4-1.05-0.1-0.467-0.167-1.083-0.2-1.85v0h-0.25v16.2h-12v-37.5h11.3l9.15 13.3c0.167 0.233 0.3 0.583 0.4 1.05 0.1 0.467 0.167 1.083 0.2 1.85v0h0.25v-16.2zM40.5-18.7v0c0-3.433 0.293-6.393 0.88-8.88 0.58-2.48 1.563-4.52 2.95-6.12 1.38-1.6 3.203-2.783 5.47-3.55 2.267-0.767 5.067-1.15 8.4-1.15v0c3.367 0 6.177 0.383 8.43 1.15 2.247 0.767 4.063 1.95 5.45 3.55 1.38 1.6 2.363 3.64 2.95 6.12 0.58 2.487 0.87 5.447 0.87 8.88v0c0 3.267-0.267 6.123-0.8 8.57-0.533 2.453-1.473 4.497-2.82 6.13-1.353 1.633-3.17 2.857-5.45 3.67-2.287 0.82-5.163 1.23-8.63 1.23v0c-3.467 0-6.34-0.41-8.62-1.23-2.287-0.813-4.103-2.037-5.45-3.67-1.353-1.633-2.297-3.677-2.83-6.13-0.533-2.447-0.8-5.303-0.8-8.57zM53.4-24.95v0 15.6h5c1.667 0 2.86-0.193 3.58-0.58 0.713-0.38 1.07-1.253 1.07-2.62v0-15.6h-5.05c-1.6 0-2.767 0.19-3.5 0.57-0.733 0.387-1.1 1.263-1.1 2.63zM106.8-27.9v-9.6h-29.4v9.6h8.7v27.9h12v-27.9zM134.1-14.15v-8.7h-12v-5.05h12.9l1.5-9.6h-26.4v37.5h26.7v-9.6h-14.7v-4.55z" fill="black" fill-rule="nonzero" stroke="none" stroke-width="1" stroke-linecap="butt" stroke-linejoin="miter" stroke-miterlimit="10" stroke-dasharray="" stroke-dashoffset="0" font-family="none" font-weight="none" font-size="none" text-anchor="none" style="mix-blend-mode: normal" opacity="1"></path><path transform="translate(0,42.3)" d="M22.2-11.05v0-1.6h-3.05v-9.2h14.45v20.05c-4.733 1.8-9.65 2.7-14.75 2.7v0c-3.5 0-6.39-0.417-8.67-1.25-2.287-0.833-4.097-2.077-5.43-3.73-1.333-1.647-2.257-3.697-2.77-6.15-0.52-2.447-0.78-5.303-0.78-8.57v0c0-3.467 0.317-6.443 0.95-8.93 0.633-2.48 1.683-4.513 3.15-6.1 1.467-1.58 3.417-2.737 5.85-3.47 2.433-0.733 5.45-1.1 9.05-1.1v0c0.8 0 1.743 0.043 2.83 0.13 1.08 0.08 2.17 0.193 3.27 0.34 1.1 0.153 2.143 0.32 3.13 0.5 0.98 0.187 1.77 0.38 2.37 0.58v0l-1.8 9.2c-1.633-0.267-3.183-0.477-4.65-0.63-1.467-0.147-2.833-0.22-4.1-0.22v0c-2.633 0-4.483 0.2-5.55 0.6v0c-1.067 0.4-1.6 1.2-1.6 2.4v0 17h3.95c1.467 0 2.527-0.157 3.18-0.47 0.647-0.32 0.97-1.013 0.97-2.08zM38.1-16.45v-21.05h12v28.15h4.25c1.533 0 2.577-0.2 3.13-0.6 0.547-0.4 0.82-1.267 0.82-2.6v0-24.95h12v21.05c0 3.2-0.207 5.9-0.62 8.1-0.42 2.2-1.22 3.99-2.4 5.37-1.187 1.387-2.83 2.38-4.93 2.98-2.1 0.6-4.817 0.9-8.15 0.9v0c-3.333 0-6.05-0.3-8.15-0.9-2.1-0.6-3.74-1.583-4.92-2.95-1.187-1.367-1.987-3.16-2.4-5.38-0.42-2.213-0.63-4.92-0.63-8.12zM84.35 0l1.35-5.95h9.9l1.4 5.95h12.65l-9.7-37.5h-18.55l-9.7 37.5zM90.35-26h0.65l2.4 10.5h-5.5zM138.15-12.5v0l6.5 12.5h-13.2l-4.9-11.15h-2.6v11.15h-12v-37.5h18.9c8.6 0 12.9 4.383 12.9 13.15v0c0 6-1.867 9.95-5.6 11.85zM126.7-27.9v0h-2.75v7.5h2.75c1.467 0 2.527-0.15 3.18-0.45 0.647-0.3 0.97-0.983 0.97-2.05v0-2.5c0-1.067-0.323-1.75-0.97-2.05-0.653-0.3-1.713-0.45-3.18-0.45zM165.65 0v0h-16.8v-37.5h16.8c3.367 0 6.183 0.34 8.45 1.02 2.267 0.687 4.083 1.78 5.45 3.28 1.367 1.5 2.343 3.433 2.93 5.8 0.58 2.367 0.87 5.233 0.87 8.6v0c0 3.367-0.29 6.24-0.87 8.62-0.587 2.387-1.563 4.33-2.93 5.83-1.367 1.5-3.183 2.6-5.45 3.3-2.267 0.7-5.083 1.05-8.45 1.05zM165.85-27.9v0h-5v18.3h5c1.667 0 2.86-0.193 3.58-0.58 0.713-0.38 1.07-1.253 1.07-2.62v0-11.9c0-1.367-0.357-2.243-1.07-2.63-0.72-0.38-1.913-0.57-3.58-0.57z" fill="black" fill-rule="nonzero" stroke="none" stroke-width="1" stroke-linecap="butt" stroke-linejoin="miter" stroke-miterlimit="10" stroke-dasharray="" stroke-dashoffset="0" font-family="none" font-weight="none" font-size="none" text-anchor="none" style="mix-blend-mode: normal" opacity="1"></path></g></svg></g></svg></g></svg></g></svg></g><g><svg viewBox="0 0 179.01992461812796 218.33136542322265" height="218.33136542322265" width="179.01992461812796"><g><svg xmlns="http://www.w3.org/2000/svg" xmlns:xlink="http://www.w3.org/1999/xlink" version="1.1" x="0" y="0" viewBox="33.66375667942837 19.096 132.67224332057165 161.80607884698676" enable-background="new 0 0 200 200" xml:space="preserve" height="218.33136542322265" width="179.01992461812796" class="icon-icon-0" data-fill-palette-color="accent" id="SvgjsSvg1022"><g fill="black"><path fill="black" d="M94.599 172.819H94.59L56.059 172.902H56.025C52.267 172.902 48.733 171.442 46.069 168.788A14.03 14.03 0 0 1 41.913 158.81L41.663 41.435A14.03 14.03 0 0 1 45.779 31.442 14.03 14.03 0 0 1 55.752 27.285L94.289 27.204A4 4 0 0 0 94.281 19.204H94.273L55.737 19.285A21.97 21.97 0 0 0 40.111 25.797 21.98 21.98 0 0 0 33.664 41.452L33.914 158.828A22 22 0 0 0 40.424 174.456 21.96 21.96 0 0 0 56.025 180.902H56.079L94.609 180.819A4 4 0 0 0 94.599 172.819"></path><path fill="black" d="M166.005 127.065C166.033 126.998 166.062 126.931 166.087 126.863 166.149 126.693 166.197 126.52 166.236 126.344 166.246 126.297 166.261 126.253 166.269 126.206 166.31 125.983 166.33 125.759 166.331 125.531 166.332 125.515 166.336 125.5 166.336 125.483L166.155 41.173C166.128 28.99 156.204 19.096 144.022 19.096H143.977L109.14 19.173A4 4 0 0 0 109.149 27.173H109.158L143.994 27.096H144.023C151.799 27.096 158.137 33.413 158.155 41.19L158.328 121.5 132.473 121.554A21.97 21.97 0 0 0 116.843 128.067 21.98 21.98 0 0 0 110.4 143.724L110.469 176.785C110.469 176.809 110.474 176.833 110.475 176.857 110.476 176.927 110.486 176.996 110.491 177.065 110.504 177.231 110.523 177.395 110.555 177.556A4.3 4.3 0 0 0 110.765 178.256C110.792 178.325 110.816 178.395 110.847 178.462 110.944 178.67 111.056 178.869 111.187 179.057 111.217 179.101 111.255 179.142 111.289 179.185 111.405 179.337 111.53 179.482 111.667 179.617 111.694 179.643 111.713 179.675 111.74 179.7 111.769 179.727 111.802 179.745 111.833 179.771 111.96 179.882 112.095 179.985 112.236 180.081 112.293 180.12 112.347 180.162 112.406 180.198 112.596 180.312 112.796 180.416 113.007 180.499L113.012 180.5C113.241 180.59 113.475 180.656 113.712 180.702L113.733 180.708A4 4 0 0 0 115.274 180.694C115.319 180.684 115.361 180.664 115.406 180.653 115.625 180.6 115.842 180.541 116.05 180.451 116.078 180.439 116.104 180.419 116.132 180.406 116.35 180.306 116.564 180.194 116.764 180.053 116.99 179.895 117.202 179.712 117.395 179.505L165.262 128.221C165.421 128.051 165.557 127.867 165.682 127.676 165.719 127.618 165.75 127.56 165.785 127.5 165.866 127.36 165.94 127.215 166.005 127.065"></path><path fill="black" d="M131.981 50.3H131.972L67.885 50.434A4 4 0 0 0 67.893 58.434H67.901L131.99 58.3A4 4 0 0 0 135.981 54.292 4 4 0 0 0 131.981 50.3"></path><path fill="black" d="M132.025 73.115H132.016L67.935 73.251A4 4 0 0 0 67.943 81.251H67.951L132.033 81.115A4 4 0 0 0 132.025 73.115"></path><path fill="black" d="M132.066 95.935L67.985 96.069A4 4 0 0 0 67.993 104.069H68.001L132.083 103.935A4 4 0 0 0 132.074 95.935z"></path></g></svg></g></svg></g></svg></g><defs><mask></mask></defs></svg><rect width="395.52" height="145.21019060157644" fill="black" stroke="none" visibility="hidden"></rect></g></mask></svg><rect width="395.52" height="145.21019060157644" fill="black" stroke="none" visibility="hidden"></rect></g></mask><linearGradient x1="0" x2="1" y1="0.5" y2="0.5" id="0eb76577-a6d3-4d29-ac9d-1c8d8eb81d03"><stop stop-color="#ffa62e" offset="0"></stop><stop stop-color="#f71b3d" offset="1"></stop></linearGradient><rect width="395.52" height="145.21019060157644" fill="url(#0eb76577-a6d3-4d29-ac9d-1c8d8eb81d03)" mask="url(#5fb5ca9a-5f50-4589-b0df-2162edc68f73)" data-fill-palette-color="accent"></rect></svg><rect width="395.52" height="145.21019060157644" fill="none" stroke="none" visibility="hidden"></rect></g></svg></g></svg>