<svg xmlns="http://www.w3.org/2000/svg" version="1.1" xmlns:xlink="http://www.w3.org/1999/xlink" xmlns:svgjs="http://svgjs.dev/svgjs" width="2000" height="929" viewBox="0 0 2000 929"><g transform="matrix(1,0,0,1,-1.2121212121212466,-0.7568241654632857)"><svg viewBox="0 0 396 184" data-background-color="#ffffff" preserveAspectRatio="xMidYMid meet" height="929" width="2000" xmlns="http://www.w3.org/2000/svg" xmlns:xlink="http://www.w3.org/1999/xlink"><g id="tight-bounds" transform="matrix(1,0,0,1,0.2400000000000091,0.14989843535548175)"><svg viewBox="0 0 395.52 183.70020312928904" height="183.70020312928904" width="395.52"><g><svg viewBox="0 0 395.52000000000004 183.70020312928906" height="183.70020312928904" width="395.52"><g><svg viewBox="0 0 395.52000000000004 183.70020312928906" height="183.70020312928906" width="395.52000000000004"><g id="textblocktransform"><svg viewBox="0 0 395.52000000000004 183.70020312928906" height="183.70020312928906" width="395.52000000000004" id="textblock"><g><svg viewBox="0 0 395.52000000000004 183.70020312928906" height="183.70020312928906" width="395.52000000000004"><g transform="matrix(1,0,0,1,0,0)"><svg width="395.52000000000004" viewBox="1.1999999999999946 -38.39999999999999 182.15 81.6" height="183.70020312928906" data-palette-color="#31302e"><svg></svg><svg></svg><g class="wordmark-text-0" data-fill-palette-color="primary" id="text-0"><path d="M36.3-37.5v37.5h-11.3l-9.15-13.3c-0.167-0.233-0.3-0.583-0.4-1.05-0.1-0.467-0.167-1.083-0.2-1.85v0h-0.25v16.2h-12v-37.5h11.3l9.15 13.3c0.167 0.233 0.3 0.583 0.4 1.05 0.1 0.467 0.167 1.083 0.2 1.85v0h0.25v-16.2zM40.5-18.7v0c0-3.433 0.293-6.393 0.88-8.88 0.58-2.48 1.563-4.52 2.95-6.12 1.38-1.6 3.203-2.783 5.47-3.55 2.267-0.767 5.067-1.15 8.4-1.15v0c3.367 0 6.177 0.383 8.43 1.15 2.247 0.767 4.063 1.95 5.45 3.55 1.38 1.6 2.363 3.64 2.95 6.12 0.58 2.487 0.87 5.447 0.87 8.88v0c0 3.267-0.267 6.123-0.8 8.57-0.533 2.453-1.473 4.497-2.82 6.13-1.353 1.633-3.17 2.857-5.45 3.67-2.287 0.82-5.163 1.23-8.63 1.23v0c-3.467 0-6.34-0.41-8.62-1.23-2.287-0.813-4.103-2.037-5.45-3.67-1.353-1.633-2.297-3.677-2.83-6.13-0.533-2.447-0.8-5.303-0.8-8.57zM53.4-24.95v0 15.6h5c1.667 0 2.86-0.193 3.58-0.58 0.713-0.38 1.07-1.253 1.07-2.62v0-15.6h-5.05c-1.6 0-2.767 0.19-3.5 0.57-0.733 0.387-1.1 1.263-1.1 2.63zM106.8-27.9v-9.6h-29.4v9.6h8.7v27.9h12v-27.9zM134.1-14.15v-8.7h-12v-5.05h12.9l1.5-9.6h-26.4v37.5h26.7v-9.6h-14.7v-4.55z" fill="#31302e" fill-rule="nonzero" stroke="none" stroke-width="1" stroke-linecap="butt" stroke-linejoin="miter" stroke-miterlimit="10" stroke-dasharray="" stroke-dashoffset="0" font-family="none" font-weight="none" font-size="none" text-anchor="none" style="mix-blend-mode: normal" data-fill-palette-color="primary" opacity="1"></path><path d="M22.2 31.25v0-1.6h-3.05v-9.2h14.45v20.05c-4.733 1.8-9.65 2.7-14.75 2.7v0c-3.5 0-6.39-0.417-8.67-1.25-2.287-0.833-4.097-2.077-5.43-3.73-1.333-1.647-2.257-3.697-2.77-6.15-0.52-2.447-0.78-5.303-0.78-8.57v0c0-3.467 0.317-6.443 0.95-8.93 0.633-2.48 1.683-4.513 3.15-6.1 1.467-1.58 3.417-2.737 5.85-3.47 2.433-0.733 5.45-1.1 9.05-1.1v0c0.8 0 1.743 0.043 2.83 0.13 1.08 0.08 2.17 0.193 3.27 0.34 1.1 0.153 2.143 0.32 3.13 0.5 0.98 0.187 1.77 0.38 2.37 0.58v0l-1.8 9.2c-1.633-0.267-3.183-0.477-4.65-0.63-1.467-0.147-2.833-0.22-4.1-0.22v0c-2.633 0-4.483 0.2-5.55 0.6v0c-1.067 0.4-1.6 1.2-1.6 2.4v0 17h3.95c1.467 0 2.527-0.157 3.18-0.47 0.647-0.32 0.97-1.013 0.97-2.08zM38.1 25.85v-21.05h12v28.15h4.25c1.533 0 2.577-0.2 3.13-0.6 0.547-0.4 0.82-1.267 0.82-2.6v0-24.95h12v21.05c0 3.2-0.207 5.9-0.62 8.1-0.42 2.2-1.22 3.99-2.4 5.37-1.187 1.387-2.83 2.38-4.93 2.98-2.1 0.6-4.817 0.9-8.15 0.9v0c-3.333 0-6.05-0.3-8.15-0.9-2.1-0.6-3.74-1.583-4.92-2.95-1.187-1.367-1.987-3.16-2.4-5.38-0.42-2.213-0.63-4.92-0.63-8.12zM84.35 42.3l1.35-5.95h9.9l1.4 5.95h12.65l-9.7-37.5h-18.55l-9.7 37.5zM90.35 16.3h0.65l2.4 10.5h-5.5zM138.15 29.8v0l6.5 12.5h-13.2l-4.9-11.15h-2.6v11.15h-12v-37.5h18.9c8.6 0 12.9 4.383 12.9 13.15v0c0 6-1.867 9.95-5.6 11.85zM126.7 14.4v0h-2.75v7.5h2.75c1.467 0 2.527-0.15 3.18-0.45 0.647-0.3 0.97-0.983 0.97-2.05v0-2.5c0-1.067-0.323-1.75-0.97-2.05-0.653-0.3-1.713-0.45-3.18-0.45zM165.65 42.3v0h-16.8v-37.5h16.8c3.367 0 6.183 0.34 8.45 1.02 2.267 0.687 4.083 1.78 5.45 3.28 1.367 1.5 2.343 3.433 2.93 5.8 0.58 2.367 0.87 5.233 0.87 8.6v0c0 3.367-0.29 6.24-0.87 8.62-0.587 2.387-1.563 4.33-2.93 5.83-1.367 1.5-3.183 2.6-5.45 3.3-2.267 0.7-5.083 1.05-8.45 1.05zM165.85 14.4v0h-5v18.3h5c1.667 0 2.86-0.193 3.58-0.58 0.713-0.38 1.07-1.253 1.07-2.62v0-11.9c0-1.367-0.357-2.243-1.07-2.63-0.72-0.38-1.913-0.57-3.58-0.57z" fill="#31302e" fill-rule="nonzero" stroke="none" stroke-width="1" stroke-linecap="butt" stroke-linejoin="miter" stroke-miterlimit="10" stroke-dasharray="" stroke-dashoffset="0" font-family="none" font-weight="none" font-size="none" text-anchor="none" style="mix-blend-mode: normal" data-fill-palette-color="primary" opacity="1"></path></g></svg></g></svg></g></svg></g></svg></g></svg></g><defs></defs></svg><rect width="395.52" height="183.70020312928904" fill="none" stroke="none" visibility="hidden"></rect></g></svg></g></svg>